<svg xmlns="http://www.w3.org/2000/svg" version="1.1" xmlns:xlink="http://www.w3.org/1999/xlink" xmlns:svgjs="http://svgjs.dev/svgjs" width="1000" height="1000"><style>
    #light-icon {
      display: inline;
    }
    #dark-icon {
      display: none;
    }

    @media (prefers-color-scheme: dark) {
      #light-icon {
        display: none;
      }
      #dark-icon {
        display: inline;
      }
    }
  </style><g id="light-icon"><svg xmlns="http://www.w3.org/2000/svg" version="1.1" xmlns:xlink="http://www.w3.org/1999/xlink" xmlns:svgjs="http://svgjs.dev/svgjs" width="1000" height="1000"><g><g transform="matrix(2.155051377933386,0,0,2.155051377933386,23.716814525459995,0)"><svg xmlns="http://www.w3.org/2000/svg" version="1.1" xmlns:xlink="http://www.w3.org/1999/xlink" xmlns:svgjs="http://svgjs.dev/svgjs" width="442.01562" height="464.02606"><svg width="442.01562" height="464.02606" viewBox="0 0 442.01562 464.02606" version="1.1" id="svg7" xmlns="http://www.w3.org/2000/svg" xmlns:svg="http://www.w3.org/2000/svg">
  <defs id="defs7"></defs>
  <!-- Background -->
  <!-- Magnifier circle -->
  <!-- Compass inside magnifier -->
  <!-- Magnifier handle, now connected properly -->
  <!-- Moves handle to just outside the edge of the circle at 45° angle -->
  <g id="g1" transform="matrix(1.5563709,0,0,1.5563709,-147.85524,-147.85524)">
    <g id="g7">
      <path id="_dp15gEObJ6y9oRKpIk1-6" fill="#1b223c" d="m 193.72951,187.97429 c -0.90502,3.1629 -1.73965,6.10223 -2.13352,8.73304 -0.86929,2.24891 -1.61169,4.81709 -2.38265,7.51079 -2.80474,9.76262 -12.36083,72.53055 -10.56173,73.04723 1.80134,0.52402 27.45704,-58.09985 30.25655,-67.86953 0.90531,-3.15989 1.73994,-6.09922 2.13352,-8.73304 0.86928,-2.2489 1.61169,-4.81708 2.38564,-7.51108 2.80175,-9.76233 12.35948,-72.52891 10.56203,-73.04423 -1.80133,-0.52403 -27.45704,58.09985 -30.25984,67.86682 z m 10.90631,13.92678 c -1.54064,1.8772 -4.31003,2.15294 -6.18888,0.61094 -1.87886,-1.54199 -2.15024,-4.31332 -0.6096,-6.19053 1.54199,-1.87885 4.31168,-2.15159 6.19053,-0.60959 1.87886,1.54199 2.14994,4.31032 0.60795,6.18918 z" data-uid="o-6c65ce9a8ad04c589e7b1f510d8cf0d3" style="stroke-width:2.13211"></path>
      <circle cx="200" cy="200" r="100" stroke="#1b223c" stroke-width="10" fill="none" id="circle1"></circle>
      <text x="200" y="125" text-anchor="middle" fill="#1b223c" font-size="20px" id="text4" svgjs:data="{&quot;leading&quot;:&quot;1.3&quot;}">N</text>
      <text x="200" y="290" text-anchor="middle" fill="#1b223c" font-size="20px" id="text5" svgjs:data="{&quot;leading&quot;:&quot;1.3&quot;}">S</text>
      <text x="275" y="205" text-anchor="middle" fill="#1b223c" font-size="20px" id="text6" svgjs:data="{&quot;leading&quot;:&quot;1.3&quot;}">E</text>
      <text x="125" y="205" text-anchor="middle" fill="#1b223c" font-size="20px" id="text7" svgjs:data="{&quot;leading&quot;:&quot;1.3&quot;}">W</text>
      <rect x="270" y="270" width="160" height="20" rx="10" ry="10" transform="rotate(45,270,270)" fill="#1b223c" id="rect7"></rect>
    </g>
  </g>
</svg></svg></g></g></svg></g><g id="dark-icon"><svg xmlns="http://www.w3.org/2000/svg" version="1.1" xmlns:xlink="http://www.w3.org/1999/xlink" xmlns:svgjs="http://svgjs.dev/svgjs" width="1000" height="1000"><g><g transform="matrix(2.155051377933386,0,0,2.155051377933386,23.716814525459995,0)"><svg xmlns="http://www.w3.org/2000/svg" version="1.1" xmlns:xlink="http://www.w3.org/1999/xlink" xmlns:svgjs="http://svgjs.dev/svgjs" width="442.01562" height="464.02606"><svg width="442.01562" height="464.02606" viewBox="0 0 442.01562 464.02606" version="1.1" id="svg7" xmlns="http://www.w3.org/2000/svg" xmlns:svg="http://www.w3.org/2000/svg">
  <defs id="defs7"></defs>
  <!-- Background -->
  <!-- Magnifier circle -->
  <!-- Compass inside magnifier -->
  <!-- Magnifier handle, now connected properly -->
  <!-- Moves handle to just outside the edge of the circle at 45° angle -->
  <g id="g1" transform="matrix(1.5563709,0,0,1.5563709,-147.85524,-147.85524)">
    <g id="g7">
      <path id="_dp15gEObJ6y9oRKpIk1-6" fill="#ffffff" d="m 193.72951,187.97429 c -0.90502,3.1629 -1.73965,6.10223 -2.13352,8.73304 -0.86929,2.24891 -1.61169,4.81709 -2.38265,7.51079 -2.80474,9.76262 -12.36083,72.53055 -10.56173,73.04723 1.80134,0.52402 27.45704,-58.09985 30.25655,-67.86953 0.90531,-3.15989 1.73994,-6.09922 2.13352,-8.73304 0.86928,-2.2489 1.61169,-4.81708 2.38564,-7.51108 2.80175,-9.76233 12.35948,-72.52891 10.56203,-73.04423 -1.80133,-0.52403 -27.45704,58.09985 -30.25984,67.86682 z m 10.90631,13.92678 c -1.54064,1.8772 -4.31003,2.15294 -6.18888,0.61094 -1.87886,-1.54199 -2.15024,-4.31332 -0.6096,-6.19053 1.54199,-1.87885 4.31168,-2.15159 6.19053,-0.60959 1.87886,1.54199 2.14994,4.31032 0.60795,6.18918 z" data-uid="o-6c65ce9a8ad04c589e7b1f510d8cf0d3" style="stroke-width:2.13211"></path>
      <circle cx="200" cy="200" r="100" stroke="#ffffff" stroke-width="10" fill="none" id="circle1"></circle>
      <text x="200" y="125" text-anchor="middle" fill="#ffffff" font-size="20px" id="text4" svgjs:data="{&quot;leading&quot;:&quot;1.3&quot;}">N</text>
      <text x="200" y="290" text-anchor="middle" fill="#ffffff" font-size="20px" id="text5" svgjs:data="{&quot;leading&quot;:&quot;1.3&quot;}">S</text>
      <text x="275" y="205" text-anchor="middle" fill="#ffffff" font-size="20px" id="text6" svgjs:data="{&quot;leading&quot;:&quot;1.3&quot;}">E</text>
      <text x="125" y="205" text-anchor="middle" fill="#ffffff" font-size="20px" id="text7" svgjs:data="{&quot;leading&quot;:&quot;1.3&quot;}">W</text>
      <rect x="270" y="270" width="160" height="20" rx="10" ry="10" transform="rotate(45,270,270)" fill="#ffffff" id="rect7"></rect>
    </g>
  </g>
</svg></svg></g></g></svg></g></svg>